PathFileType	4	(X/Y/Z)	6_coords_data.trc
DataRate	CameraRate	NumFrames	NumMarkers	Units	OrigDataRate	OrigDataStartFrame	OrigNumFrames
30.0	30.0	6	21	m	30.0	21	82
Frame#	Time	THUMB_TIP	THUMB_IP	THUMB_MCP	THUMB_CMC	INDEX_TIP	INDEX_DIP	INDEX_PIP	INDEX_MCP	MIDDLE_TIP	MIDDLE_DIP	MIDDLE_PIP	MIDDLE_MCP	RING_TIP	RING_DIP	RING_PIP	RING_MCP	PINKY_TIP	PINKY_DIP	PINKY_PIP	PINKY_MCP	WRIST
X1	Y1	Z1	X2	Y2	Z2	X3	Y3	Z3	X4	Y4	Z4	X5	Y5	Z5	X6	Y6	Z6	X7	Y7	Z7	X8	Y8	Z8	X9	Y9	Z9	X10	Y10	Z10	X11	Y11	Z11	X12	Y12	Z12	X13	Y13	Z13	X14	Y14	Z14	X15	Y15	Z15	X16	Y16	Z16	X17	Y17	Z17	X18	Y18	Z18	X19	Y19	Z19	X20	Y20	Z20	X21	Y21	Z21
20	0.6666666666666666	0.015477399826049804	-0.11957700347900391	0.998322021484375	0.016305299758911134	-0.09436260223388672	1.0126099853515624	0.006966579914093018	-0.07301139831542969	1.0346199951171875	0.003313440084457397	-0.03696580123901367	1.048	0.013421199798583984	-0.04699700164794922	1.0201799926757813	0.02978030014038086	-0.04832149887084961	1.0088400268554687	0.03189739990234375	-0.05529970169067383	0.984843994140625	-0.008943309783935547	-0.05518119812011719	0.9909180297851562	0.01727669906616211	-0.03257099914550781	1.023010009765625	0.027643199920654296	-0.030683500289916992	1.013760009765625	0.03354230117797852	-0.033327098846435546	0.984844970703125	-0.011370699882507324	-0.03127199935913086	0.9828599853515625	0.01232349967956543	-0.014986900329589844	1.024219970703125	0.025269699096679688	-0.013440400123596192	1.0145	0.033561901092529295	-0.012452099800109863	0.9883590087890625	-0.00851358985900879	-0.006942249774932861	0.9845910034179688	0.010819899559020995	0.001632320046424865	1.0214500122070314	0.02561630058288574	0.002340369939804077	1.0123699951171874	0.02886330032348633	0.006398159980773926	0.9927360229492187	-0.002008080005645752	0.013220499992370606	0.9924190063476562	-0.017517799377441405	-0.007484089851379393	1.0655999755859376
21	0.7	0.01569159984588623	-0.11946600341796874	0.9982509765625	0.01642889976501465	-0.09424169921875	1.0125599975585937	0.007018829822540283	-0.07301129913330077	1.03456005859375	0.003328680038452148	-0.03694609832763672	1.048030029296875	0.013590100288391114	-0.0469547004699707	1.0198800048828125	0.02982379913330078	-0.048310901641845705	1.0088099975585938	0.03176449966430664	-0.05540349960327148	0.9846300048828125	-0.009040929794311524	-0.055168800354003907	0.990968994140625	0.017270999908447264	-0.03247299957275391	1.0230599975585937	0.027676599502563477	-0.03071619987487793	1.0136300048828124	0.03318379974365234	-0.03351530075073242	0.9843829956054687	-0.011416600227355958	-0.03128260040283203	0.9829110107421875	0.012869999885559083	-0.015178600311279296	1.0238200073242187	0.025226200103759765	-0.013413700103759765	1.0146500244140626	0.033479499816894534	-0.012536100387573242	0.9878359985351562	-0.008556500434875488	-0.006925670146942139	0.9846090087890625	0.010762499809265138	0.001641829967498779	1.02147998046875	0.025592100143432616	0.002366039991378784	1.0124600219726563	0.02884709930419922	0.006409530162811279	0.9928740234375	-0.002059920072555542	0.013218400001525878	0.9924329833984376	-0.017474599838256836	-0.007499420166015625	1.0656800537109374
22	0.7333333333333333	0.015849599838256834	-0.11927899932861329	0.9981680297851563	0.016530500411987305	-0.09415730285644532	1.01247998046875	0.007005320072174072	-0.07296450042724609	1.0345400390625	0.003416290044784546	-0.03700619888305664	1.0479200439453125	0.013972100257873534	-0.04691619873046875	1.0201400146484374	0.029684799194335938	-0.04832870101928711	1.0088499755859375	0.031818700790405274	-0.05537469863891602	0.9846580200195313	-0.008689539909362793	-0.05521780014038086	0.9908049926757813	0.017325300216674805	-0.032522098541259765	1.022530029296875	0.027606700897216795	-0.030668699264526367	1.013760009765625	0.033340400695800784	-0.03338330078125	0.984780029296875	-0.011433300018310546	-0.031319299697875974	0.98285498046875	0.012374899864196777	-0.014989100456237792	1.02406005859375	0.02516780090332031	-0.013394300460815429	1.0149000244140625	0.03342890167236328	-0.01259469985961914	0.9877969970703125	-0.00861380958557129	-0.0069479899406433105	0.9847150268554687	0.010721699714660644	0.0016083199977874752	1.0214099731445312	0.025494699478149415	0.0022853899002075193	1.0120800170898439	0.028750099182128907	0.006369440078735351	0.992666015625	-0.002189670085906982	0.013210700035095215	0.9925269775390625	-0.01753689956665039	-0.007509490013122558	1.0655999755859376
23	0.7666666666666667	0.015631199836730957	-0.1194229965209961	0.99797802734375	0.01639349937438965	-0.09424759674072265	1.0123800048828124	0.006909039974212647	-0.07319619750976562	1.0344200439453124	0.003174390077590942	-0.037107601165771484	1.0479599609375	0.013476300239562988	-0.04706760025024414	1.0199500122070313	0.029643400192260742	-0.048457698822021486	1.0087000122070313	0.03165200042724609	-0.05558209991455078	0.9845460205078125	-0.009157259941101075	-0.055305500030517575	0.9908189697265625	0.017266899108886718	-0.032643798828125	1.0227899780273437	0.02754290008544922	-0.030835599899291993	1.0136799926757813	0.03344729995727539	-0.033462799072265625	0.98472998046875	-0.011533900260925293	-0.03138759994506836	0.9828209838867188	0.012558300018310547	-0.015297900199890137	1.0239000244140626	0.025006500244140625	-0.013624600410461426	1.0145499877929687	0.033342498779296875	-0.012734199523925781	0.9877219848632812	-0.008701860427856445	-0.007021080017089844	0.9846630249023437	0.01068649959564209	0.001477540016174316	1.0213900146484376	0.025483299255371093	0.002168489933013916	1.0124099731445313	0.02870789909362793	0.006212840080261231	0.99264501953125	-0.002060849905014038	0.013091099739074708	0.9924149780273438	-0.017562200546264648	-0.007597119808197022	1.06552001953125
24	0.8	0.015623700141906739	-0.11953600311279297	0.9978989868164062	0.01631290054321289	-0.09431960296630859	1.0123200073242187	0.0068618497848510745	-0.0732686996459961	1.0344200439453124	0.003280100107192993	-0.037242900848388674	1.047989990234375	0.013662099838256836	-0.047305801391601565	1.0196699829101563	0.02963979911804199	-0.04872570037841797	1.0086500244140626	0.03152879905700683	-0.05585250091552734	0.984510009765625	-0.009179539680480957	-0.05540399932861328	0.990823974609375	0.017210399627685547	-0.03287580108642578	1.0226099853515624	0.027618600845336915	-0.03109939956665039	1.013530029296875	0.03312749862670898	-0.03379399871826172	0.984405029296875	-0.011543800354003906	-0.03153879928588867	0.9828049926757813	0.012627699851989745	-0.015545900344848634	1.0238699951171875	0.025149200439453127	-0.013824299812316894	1.0146300048828125	0.03331719970703125	-0.012941399574279784	0.987718994140625	-0.008749309539794923	-0.007145209789276123	0.984708984375	0.010692000389099121	0.001258000016212463	1.0214199829101562	0.025452699661254883	0.0019346400499343872	1.01222998046875	0.02873200035095215	0.005951260089874268	0.992426025390625	-0.002233599901199341	0.012975000381469726	0.992531005859375	-0.017561500549316406	-0.007765349864959717	1.0656800537109374
25	0.8333333333333334	0.01590939998626709	-0.11965499877929688	0.9978720092773438	0.016589799880981446	-0.09456620025634765	1.0122899780273438	0.006944759845733643	-0.07347869873046875	1.034469970703125	0.0031848299503326413	-0.037561100006103514	1.04797998046875	0.013413599967956543	-0.047500099182128906	1.0197000122070312	0.029574899673461913	-0.048945701599121094	1.008719970703125	0.03160989952087402	-0.05602069854736328	0.9845180053710938	-0.009137379646301269	-0.05569940185546875	0.9907860107421875	0.017262300491333007	-0.033090198516845706	1.0226699829101562	0.02752280044555664	-0.03128240013122559	1.0136599731445313	0.03312099838256836	-0.034086700439453124	0.9843189697265625	-0.011557600021362305	-0.031836900711059574	0.9827509765625	0.012466899871826172	-0.01553660011291504	1.0241700439453125	0.025096399307250977	-0.014135000228881835	1.0141500244140624	0.03335350036621094	-0.013154000282287597	0.987718994140625	-0.00874289035797119	-0.007405139923095703	0.9847239990234375	0.01062150001525879	0.001105419993400573	1.0212100219726563	0.025422599792480467	0.0016014300584793091	1.0115499877929688	0.028750499725341796	0.005713510036468506	0.9924329833984376	-0.0021575300693511957	0.012750900268554688	0.9925139770507813	-0.017588499069213868	-0.007975299835205079	1.06556005859375
